# xmcd
#
# Track frame offsets:
#	150
#	16696
#	29168
#	41465
#	54436
#	70849
#	85598
#	97717
#	111315
#	121653
#	136965
#	147169
#	160136
#	173289
#	184560
#	201215
#	209831
#	227468
#
# Disc length: 3190 seconds
#
# Revision: 1
# Processed by: cddbd v1.5.2PL0 Copyright (c) Steve Scherf et al.
# Submitted via: audiograbber 1.83.01
#
DISCID=e20c7412
DTITLE=Larry Lange and his Lonely Knights - Crazy, Crazy Baby
DYEAR=2007
DGENRE=Blues
TTITLE0=No One Else Will Do
TTITLE1=Crazy,Crazy Baby
TTITLE2=Corpus Christi Rocks
TTITLE3=Try To Find Another Man
TTITLE4=Lookout Mr. Heartache
TTITLE5=Everything's Alright
TTITLE6=Falta Tu Amor
TTITLE7=Together Again
TTITLE8=Walking In The Park
TTITLE9=This Broken Heart
TTITLE10=Candy Kisses
TTITLE11=Put Me In Jail
TTITLE12=Juega Carnicas
TTITLE13=Carino Nuevo
TTITLE14=Please Don't Leave
TTITLE15=Shirley
TTITLE16=Sometimes
TTITLE17=Peanuts
EXTD=
EXTT0=
EXTT1=
EXTT2=
EXTT3=
EXTT4=
EXTT5=
EXTT6=
EXTT7=
EXTT8=
EXTT9=
EXTT10=
EXTT11=
EXTT12=
EXTT13=
EXTT14=
EXTT15=
EXTT16=
EXTT17=
PLAYORDER=
